<?xml version="1.0" encoding="utf-8"?>
<!-- Generator: Adobe Illustrator 16.0.4, SVG Export Plug-In . SVG Version: 6.00 Build 0)  -->
<!DOCTYPE svg PUBLIC "-//W3C//DTD SVG 1.1//EN" "http://www.w3.org/Graphics/SVG/1.1/DTD/svg11.dtd">
<svg version="1.1" id="Layer_1" xmlns="http://www.w3.org/2000/svg" xmlns:xlink="http://www.w3.org/1999/xlink" x="0px" y="0px"
	 width="299px" height="43px" viewBox="0 0 299 43" enable-background="new 0 0 299 43" xml:space="preserve">
<g id="Layer_1_1_" display="none">
	
		<text transform="matrix(1 0 0 1 20.0801 26.4775)" display="inline" fill="#706F6F" font-family="'AGaramondPro-Regular'" font-size="20" letter-spacing="2">københavns universitet</text>
</g>
<g id="Layer_2">
	<g enable-background="new    ">
		<path fill="#FFFFFF" d="M1.689,20.367c0-1.381-0.1-1.421-0.94-1.601l-0.28-0.061c-0.14-0.1-0.12-0.439,0.04-0.5
			c0.68,0.04,1.3,0.061,1.94,0.061c0.64,0,1.26-0.021,2.041-0.061c0.16,0.061,0.18,0.4,0.04,0.5l-0.38,0.061
			c-0.86,0.14-0.94,0.22-0.94,1.601v2.82c0,2,0.66,3.358,2.601,3.358c1.8,0,2.581-1.358,2.581-3.341v-1.86c0-2-0.12-2.46-0.98-2.58
			l-0.42-0.061c-0.14-0.119-0.12-0.399,0.04-0.5c0.64,0.04,1.1,0.061,1.68,0.061s1.02-0.021,1.66-0.061
			c0.16,0.101,0.16,0.4,0.02,0.5l-0.6,0.061c-0.52,0.06-0.68,0.6-0.68,2.58v1.98c0,2.562-1.18,3.899-3.721,3.899
			c-1.28,0-2.24-0.261-2.84-0.841c-0.6-0.6-0.86-1.521-0.86-2.819v-3.198L1.689,20.367L1.689,20.367z"/>
		<path fill="#FFFFFF" d="M21.751,21.347c0-2-0.12-2.521-0.86-2.58l-0.64-0.061c-0.14-0.119-0.12-0.399,0.04-0.5
			c0.74,0.04,1.2,0.061,1.78,0.061c0.581,0,1.021-0.021,1.661-0.061c0.16,0.101,0.16,0.4,0.02,0.5l-0.6,0.061
			c-0.52,0.06-0.68,0.6-0.68,2.58v3.361c0,0.399,0,2.021,0.06,2.319c-0.06,0.121-0.24,0.221-0.42,0.181
			c-0.22-0.278-0.62-0.7-1.86-2.04l-3.041-3.241c-0.76-0.8-1.28-1.32-1.541-1.54c-0.08,0-0.08,0.22-0.08,0.84v2.641
			c0,2.001,0.12,2.521,0.86,2.581l0.64,0.06c0.16,0.12,0.12,0.4-0.04,0.5c-0.74-0.04-1.2-0.06-1.78-0.06s-0.96,0.02-1.66,0.06
			c-0.16-0.079-0.16-0.399-0.02-0.5l0.6-0.06c0.52-0.061,0.68-0.602,0.68-2.581v-3.58c0-0.66-0.02-0.94-0.42-1.24
			c-0.16-0.12-0.54-0.24-0.74-0.28l-0.3-0.061c-0.14-0.119-0.14-0.42,0.04-0.5c0.76,0.061,1.3,0.061,1.72,0.061
			c0.28,0,0.56-0.021,0.8-0.061c0.4,0.761,1.14,1.621,1.96,2.461l1.88,1.939c0.44,0.439,1.6,1.701,1.82,1.859
			c0.12-0.039,0.12-0.318,0.12-0.8L21.751,21.347L21.751,21.347z"/>
		<path fill="#FFFFFF" d="M28.449,20.367c0-1.381-0.08-1.461-0.94-1.601l-0.38-0.061c-0.14-0.1-0.12-0.439,0.04-0.5
			c0.78,0.04,1.4,0.061,2.041,0.061s1.26-0.021,2.04-0.061c0.16,0.061,0.18,0.4,0.04,0.5l-0.38,0.061
			c-0.86,0.14-0.94,0.22-0.94,1.601v4.48c0,1.381,0.08,1.459,0.94,1.6l0.38,0.061c0.14,0.102,0.12,0.439-0.04,0.5
			c-0.76-0.039-1.42-0.061-2.04-0.061c-0.64,0-1.261,0.021-2.041,0.061c-0.16-0.061-0.18-0.398-0.04-0.5l0.38-0.061
			c0.86-0.141,0.94-0.219,0.94-1.6V20.367z"/>
		<path fill="#FFFFFF" d="M35.769,20.407c-0.6-1.32-0.68-1.421-1.16-1.541l-0.66-0.16c-0.12-0.119-0.14-0.399,0.02-0.5
			c0.52,0.04,1.18,0.061,1.8,0.061c0.72,0,1.3-0.021,1.94-0.061c0.16,0.08,0.18,0.4,0,0.5l-0.42,0.061
			c-0.52,0.08-0.52,0.34-0.08,1.32l0.98,2.222c0.5,1.141,0.84,1.879,1.14,2.539c0.4-0.84,0.74-1.681,1.12-2.521
			c0.42-0.92,0.98-2.301,1.18-2.881c0.14-0.42,0.12-0.56-0.48-0.68l-0.32-0.061c-0.18-0.119-0.12-0.38,0.04-0.5
			c0.58,0.04,1.101,0.061,1.641,0.061c0.64,0,1.1-0.021,1.42-0.061c0.2,0.08,0.24,0.4,0.1,0.5l-0.56,0.12
			c-0.6,0.12-0.72,0.301-1.36,1.661l-1.52,3.26c-0.6,1.281-1.18,2.74-1.42,3.4c-0.06,0.061-0.14,0.08-0.24,0.08
			c-0.08,0-0.16-0.021-0.24-0.08c-0.18-0.521-0.4-1.16-0.66-1.722L35.769,20.407z"/>
		<path fill="#FFFFFF" d="M47.729,20.367c0-1.381-0.08-1.44-0.84-1.601l-0.28-0.061c-0.14-0.08-0.12-0.42,0.04-0.5
			c0.581,0.04,1.201,0.061,1.861,0.061h2.84c0.88,0,1.68-0.021,1.86-0.061c0.02,0.24,0.12,1.181,0.22,2.041
			c-0.08,0.16-0.4,0.18-0.52,0.04c-0.12-0.521-0.24-0.78-0.36-0.961c-0.32-0.479-1.22-0.479-1.7-0.479h-0.88
			c-0.7,0-0.72,0.02-0.72,0.64v2.221c0,0.359,0,0.4,0.38,0.4h0.94c1.061,0,1.16-0.162,1.32-0.761l0.1-0.38
			c0.1-0.14,0.4-0.12,0.5,0.04c-0.04,0.58-0.04,0.94-0.04,1.4c0,0.5,0,0.859,0.04,1.439c-0.1,0.159-0.4,0.18-0.5,0.041l-0.1-0.382
			c-0.16-0.603-0.26-0.761-1.32-0.761h-0.94c-0.38,0-0.38,0.062-0.38,0.46v1.438c0,0.603,0.04,1.223,0.22,1.44
			c0.18,0.2,0.54,0.28,1.68,0.28c1.28,0,2.021-0.061,2.601-1.66c0.14-0.141,0.46-0.102,0.52,0.08c-0.1,0.84-0.38,1.84-0.6,2.22
			c-1.26-0.04-2.32-0.06-3.4-0.06h-1.76c-0.641,0-1.261,0.02-2.221,0.06c-0.16-0.06-0.18-0.399-0.04-0.5l0.54-0.06
			c0.86-0.103,0.94-0.221,0.94-1.603L47.729,20.367L47.729,20.367z"/>
		<path fill="#FFFFFF" d="M58.689,20.606c0-1.3-0.02-1.64-0.48-1.7l-0.56-0.08c-0.16-0.02-0.2-0.439,0-0.5
			c1.101-0.08,2.221-0.12,3.321-0.12c1.86,0,3.881,0.301,3.881,2.4c0,1.28-1,1.861-1.78,2.141c-0.08,0.08-0.06,0.2,0,0.301
			c1,1.681,1.88,2.66,2.541,3.2c0.36,0.3,0.74,0.4,1.06,0.42c0.08,0.08,0.08,0.262,0,0.32c-0.18,0.06-0.46,0.1-0.84,0.1
			c-1.201,0-1.92-0.38-2.801-1.5c-0.5-0.641-1.04-1.521-1.46-2.16c-0.16-0.24-0.48-0.32-0.8-0.32c-0.52,0-0.56,0.041-0.56,0.32v1.42
			c0,1.381,0.08,1.48,0.94,1.603l0.46,0.06c0.14,0.102,0.12,0.44-0.04,0.5c-0.84-0.039-1.5-0.06-2.12-0.06
			c-0.64,0-1.26,0.021-1.96,0.06c-0.2-0.06-0.22-0.42-0.04-0.5l0.3-0.06c0.86-0.181,0.94-0.222,0.94-1.603v-4.242H58.689z
			 M60.209,22.066c0,0.5,0.02,0.5,1,0.5c1.3,0,1.98-0.521,1.98-1.899c0-1-0.7-1.881-2.101-1.881c-0.74,0-0.88,0.04-0.88,0.561
			L60.209,22.066L60.209,22.066z"/>
		<path fill="#FFFFFF" d="M71.328,22.867c-0.96-0.5-1.78-1.28-1.78-2.4c0-1.46,1.12-2.48,3.141-2.48c0.7,0,1.18,0.18,1.86,0.3
			c0.16,0.34,0.3,1.101,0.28,1.961c-0.06,0.16-0.42,0.18-0.52,0.04c-0.16-0.7-0.68-1.721-1.86-1.721
			c-1.181,0-1.621,0.681-1.621,1.36c0,0.72,0.54,1.16,1.34,1.58l1.24,0.642c0.72,0.358,1.621,1.199,1.621,2.539
			c0,1.562-1.28,2.541-3.261,2.541c-1.221,0-2.021-0.42-2.301-0.619c-0.18-0.279-0.42-1-0.42-2.062c0.08-0.2,0.38-0.22,0.52-0.04
			c0.16,0.721,1.04,2.141,2.38,2.141c1.021,0,1.681-0.521,1.681-1.438c0-0.642-0.26-1.301-1.4-1.881L71.328,22.867z"/>
		<path fill="#FFFFFF" d="M79.888,20.367c0-1.381-0.08-1.461-0.94-1.601l-0.38-0.061c-0.14-0.1-0.12-0.439,0.04-0.5
			c0.78,0.04,1.4,0.061,2.041,0.061s1.26-0.021,2.04-0.061c0.16,0.061,0.18,0.4,0.04,0.5l-0.38,0.061
			c-0.86,0.14-0.94,0.22-0.94,1.601v4.48c0,1.381,0.08,1.459,0.94,1.6l0.38,0.061c0.14,0.102,0.12,0.439-0.04,0.5
			c-0.76-0.039-1.42-0.061-2.04-0.061c-0.64,0-1.261,0.021-2.041,0.061c-0.16-0.061-0.18-0.398-0.04-0.5l0.38-0.061
			c0.86-0.141,0.94-0.219,0.94-1.6V20.367z"/>
		<path fill="#FFFFFF" d="M89.469,19.366c0-0.52-0.02-0.52-0.42-0.52h-0.62c-1.22,0-1.74,0.12-2.22,1.5
			c-0.2,0.12-0.42,0.061-0.5-0.1c0.22-0.86,0.44-1.86,0.54-2.36c0.08-0.08,0.28-0.08,0.36,0c0.02,0.399,0.3,0.38,1.101,0.38h5.561
			c0.74,0,0.88-0.021,1.04-0.38c0.14-0.08,0.3-0.04,0.36,0.06c-0.16,0.521-0.24,1.58-0.2,2.341c-0.08,0.16-0.42,0.18-0.5,0.02
			c-0.14-1.3-0.66-1.46-1.86-1.46h-0.68c-0.38,0-0.44,0-0.44,0.52v5.48c0,1.381,0.08,1.5,0.94,1.602l0.54,0.06
			c0.14,0.101,0.12,0.44-0.04,0.5c-0.82-0.04-1.58-0.06-2.2-0.06c-0.64,0-1.36,0.02-2.201,0.06c-0.16-0.06-0.18-0.399-0.04-0.5
			l0.54-0.06c0.86-0.102,0.94-0.221,0.94-1.602L89.469,19.366L89.469,19.366z"/>
		<path fill="#FFFFFF" d="M100.748,24.288c0-0.62-0.06-0.78-0.56-1.701l-1.46-2.7c-0.42-0.8-0.62-0.98-1.14-1.08l-0.52-0.101
			c-0.14-0.119-0.1-0.439,0.06-0.5c0.66,0.04,1.12,0.061,1.84,0.061c0.6,0,1.06-0.021,1.7-0.061c0.16,0.08,0.22,0.4,0.02,0.5
			l-0.28,0.061c-0.44,0.1-0.5,0.22-0.18,0.84l0.74,1.421c0.32,0.6,0.6,1.14,0.9,1.66c0.32-0.539,0.62-1.021,0.96-1.66l0.8-1.461
			c0.3-0.56,0.34-0.74-0.14-0.8l-0.42-0.061c-0.18-0.1-0.16-0.42,0.04-0.5c0.6,0.04,1.06,0.061,1.52,0.061
			c0.44,0,0.86-0.021,1.42-0.061c0.16,0.061,0.2,0.4,0.04,0.5l-0.48,0.101c-0.62,0.12-0.72,0.24-1.34,1.24l-1.24,2
			c-0.72,1.141-0.76,1.342-0.76,1.922v1.079c0,1.181,0.08,1.3,0.94,1.399l0.5,0.061c0.14,0.102,0.12,0.439-0.04,0.5
			c-0.88-0.039-1.541-0.061-2.161-0.061c-0.64,0-1.26,0.021-2.161,0.061c-0.16-0.061-0.18-0.398-0.04-0.5l0.5-0.061
			c0.86-0.1,0.94-0.219,0.94-1.399v-0.76H100.748z"/>
		<path fill="#FFFFFF" d="M125.43,22.566c0,2.701-2.041,4.662-4.861,4.662c-3.101,0-4.941-2.021-4.941-4.541
			c0-2.663,2.041-4.703,4.941-4.703C123.789,17.986,125.43,20.127,125.43,22.566z M117.408,22.367c0,2.061,0.94,4.281,3.261,4.281
			c1.521,0,2.98-1.041,2.98-3.781c0-2.141-1.02-4.301-3.221-4.301C118.989,18.566,117.408,19.547,117.408,22.367z"/>
		<path fill="#FFFFFF" d="M130.288,20.367c0-1.381-0.1-1.421-0.84-1.601l-0.24-0.061c-0.14-0.1-0.12-0.439,0.04-0.5
			c0.54,0.04,1.161,0.061,1.801,0.061h2.78c0.88,0,1.641-0.021,1.92-0.061c0.02,0.24,0.04,1.181,0.1,2.041
			c-0.08,0.2-0.4,0.22-0.52,0.04c-0.12-0.521-0.24-0.78-0.36-0.961c-0.34-0.5-1.22-0.479-1.7-0.479h-0.78c-0.62,0-0.68,0-0.68,0.7
			v2.32c0,0.36,0,0.399,0.38,0.399h1.08c1.06,0,1.16-0.16,1.32-0.762l0.1-0.38c0.1-0.14,0.4-0.12,0.5,0.04
			c-0.04,0.58-0.04,0.939-0.04,1.398c0,0.5,0,0.86,0.04,1.44c-0.1,0.16-0.4,0.181-0.5,0.04l-0.1-0.38
			c-0.16-0.601-0.26-0.761-1.32-0.761h-1.08c-0.38,0-0.38,0.061-0.38,0.459v1.479c0,1.382,0.08,1.521,0.94,1.603l0.62,0.06
			c0.14,0.101,0.12,0.44-0.04,0.5c-1-0.04-1.66-0.06-2.28-0.06c-0.64,0-1.261,0.02-2.041,0.06c-0.16-0.06-0.18-0.399-0.04-0.5
			l0.38-0.06c0.86-0.141,0.94-0.221,0.94-1.603V20.367L130.288,20.367z"/>
		<path fill="#FFFFFF" d="M154.469,18.366c0,0.42,0.061,1.4,0.182,2.2c-0.08,0.16-0.381,0.2-0.521,0.04
			c-0.3-1.1-0.979-2.04-2.779-2.04c-1.721,0-3.421,1.16-3.421,3.881c0,2.681,1.722,4.201,3.603,4.201
			c1.879,0,2.66-1.502,2.881-2.021c0.1-0.182,0.42-0.182,0.52,0.02c-0.1,0.881-0.42,1.803-0.66,2.162
			c-0.58,0.101-1.319,0.42-2.701,0.42c-1.26,0-2.5-0.222-3.52-0.922c-1.08-0.738-1.9-1.959-1.9-3.561c0-1.62,0.68-2.82,1.68-3.601
			c0.98-0.76,2.36-1.16,3.899-1.16C153.027,17.986,154.309,18.366,154.469,18.366z"/>
		<path fill="#FFFFFF" d="M167.85,22.566c0,2.701-2.041,4.662-4.861,4.662c-3.1,0-4.939-2.021-4.939-4.541
			c0-2.663,2.04-4.703,4.939-4.703C166.208,17.986,167.85,20.127,167.85,22.566z M159.827,22.367c0,2.061,0.938,4.281,3.261,4.281
			c1.521,0,2.979-1.041,2.979-3.781c0-2.141-1.021-4.301-3.221-4.301C161.407,18.566,159.827,19.547,159.827,22.367z"/>
		<path fill="#FFFFFF" d="M172.706,20.606c0-1.3-0.021-1.6-0.479-1.68l-0.601-0.101c-0.181-0.06-0.159-0.439,0.021-0.5
			c1.119-0.08,2.142-0.12,3.199-0.12c1.121,0,1.842,0.141,2.4,0.341c0.66,0.239,1.621,0.92,1.621,2.34c0,1.381-0.92,2.02-1.66,2.28
			c-0.68,0.24-1.439,0.341-1.82,0.301c-0.1-0.101-0.1-0.279-0.02-0.359c1.24-0.26,1.857-1,1.857-2.279
			c0-1.32-0.818-2.041-2.18-2.041c-0.82,0-0.82,0.12-0.82,0.681v5.381c0,1.381,0.08,1.479,0.938,1.602l0.462,0.061
			c0.141,0.1,0.118,0.439-0.041,0.5c-0.841-0.041-1.5-0.061-2.119-0.061c-0.643,0-1.261,0.02-1.961,0.061
			c-0.16-0.061-0.182-0.4-0.04-0.5l0.3-0.061c0.86-0.18,0.94-0.221,0.94-1.602v-4.244H172.706z"/>
		<path fill="#FFFFFF" d="M183.268,20.367c0-1.381-0.08-1.44-0.84-1.601l-0.279-0.061c-0.142-0.08-0.121-0.42,0.039-0.5
			c0.58,0.04,1.201,0.061,1.859,0.061h2.842c0.881,0,1.68-0.021,1.858-0.061c0.021,0.24,0.121,1.181,0.221,2.041
			c-0.079,0.16-0.399,0.18-0.521,0.04c-0.12-0.521-0.239-0.78-0.359-0.961c-0.318-0.479-1.22-0.479-1.699-0.479h-0.882
			c-0.698,0-0.721,0.02-0.721,0.64v2.221c0,0.359,0,0.4,0.381,0.4h0.938c1.062,0,1.16-0.162,1.32-0.761l0.102-0.38
			c0.101-0.14,0.398-0.12,0.5,0.04c-0.041,0.58-0.041,0.94-0.041,1.4c0,0.5,0,0.859,0.041,1.439c-0.102,0.159-0.399,0.18-0.5,0.041
			l-0.102-0.382c-0.16-0.603-0.26-0.761-1.32-0.761h-0.938c-0.381,0-0.381,0.062-0.381,0.46v1.438c0,0.603,0.041,1.223,0.221,1.44
			c0.181,0.2,0.541,0.28,1.681,0.28c1.28,0,2.021-0.061,2.602-1.66c0.143-0.141,0.461-0.102,0.521,0.08
			c-0.102,0.84-0.381,1.84-0.602,2.22c-1.262-0.04-2.32-0.06-3.4-0.06h-1.761c-0.642,0-1.262,0.02-2.221,0.06
			c-0.159-0.06-0.181-0.399-0.041-0.5l0.541-0.06c0.858-0.103,0.938-0.221,0.938-1.603v-4.474H183.268z"/>
		<path fill="#FFFFFF" d="M201.107,21.347c0-2-0.119-2.521-0.858-2.58l-0.642-0.061c-0.141-0.119-0.119-0.399,0.039-0.5
			c0.74,0.04,1.201,0.061,1.781,0.061s1.021-0.021,1.66-0.061c0.16,0.101,0.16,0.4,0.02,0.5l-0.6,0.061
			c-0.52,0.06-0.68,0.6-0.68,2.58v3.361c0,0.399,0,2.021,0.061,2.319c-0.061,0.121-0.24,0.221-0.422,0.181
			c-0.219-0.278-0.619-0.7-1.859-2.04l-3.041-3.241c-0.76-0.8-1.278-1.32-1.541-1.54c-0.077,0-0.077,0.22-0.077,0.84v2.641
			c0,2.001,0.118,2.521,0.858,2.581l0.642,0.06c0.159,0.12,0.118,0.4-0.041,0.5c-0.739-0.04-1.199-0.06-1.779-0.06
			s-0.96,0.02-1.66,0.06c-0.159-0.079-0.159-0.399-0.021-0.5l0.602-0.06c0.521-0.061,0.682-0.602,0.682-2.581v-3.58
			c0-0.66-0.021-0.94-0.422-1.24c-0.158-0.12-0.539-0.24-0.738-0.28l-0.301-0.061c-0.142-0.119-0.142-0.42,0.039-0.5
			c0.762,0.061,1.301,0.061,1.721,0.061c0.281,0,0.562-0.021,0.802-0.061c0.399,0.761,1.142,1.621,1.961,2.461l1.88,1.939
			c0.439,0.439,1.602,1.701,1.819,1.859c0.12-0.039,0.12-0.318,0.12-0.8v-2.321L201.107,21.347L201.107,21.347z"/>
		<path fill="#FFFFFF" d="M213.568,22.107c0.641,0,0.72,0,0.72-0.521v-1.22c0-1.381-0.079-1.461-0.938-1.601l-0.381-0.061
			c-0.14-0.1-0.119-0.439,0.041-0.5c0.778,0.04,1.399,0.061,2.039,0.061c0.643,0,1.262-0.021,2.041-0.061
			c0.16,0.061,0.18,0.4,0.04,0.5l-0.381,0.061c-0.858,0.14-0.938,0.22-0.938,1.601v4.479c0,1.381,0.08,1.479,0.938,1.602l0.461,0.06
			c0.14,0.101,0.119,0.44-0.04,0.5c-0.841-0.04-1.5-0.06-2.121-0.06c-0.64,0-1.261,0.02-2.039,0.06
			c-0.16-0.06-0.181-0.399-0.041-0.5l0.381-0.06c0.859-0.141,0.938-0.221,0.938-1.602v-1.58c0-0.5-0.039-0.521-0.72-0.521h-3.521
			c-0.682,0-0.721,0.021-0.721,0.521v1.58c0,1.381,0.08,1.5,0.938,1.602l0.541,0.06c0.141,0.101,0.119,0.44-0.041,0.5
			c-0.92-0.04-1.58-0.06-2.199-0.06c-0.642,0-1.262,0.02-1.881,0.06c-0.16-0.06-0.181-0.399-0.039-0.5l0.22-0.06
			c0.84-0.221,0.94-0.221,0.94-1.602v-4.479c0-1.381-0.08-1.48-0.94-1.601l-0.459-0.061c-0.142-0.1-0.121-0.439,0.038-0.5
			c0.859,0.04,1.479,0.061,2.121,0.061s1.261-0.021,1.959-0.061c0.16,0.061,0.183,0.4,0.041,0.5l-0.301,0.061
			c-0.841,0.16-0.938,0.22-0.938,1.601v1.22c0,0.521,0.08,0.521,0.721,0.521H213.568z"/>
		<path fill="#FFFFFF" d="M223.167,23.848c-0.461,0-0.521,0.021-0.681,0.48l-0.461,1.279c-0.221,0.641-0.159,0.721,0.222,0.801
			l0.539,0.1c0.159,0.102,0.142,0.461-0.06,0.5c-0.502-0.039-1.021-0.061-1.582-0.061c-0.56,0-1.039,0.041-1.399,0.061
			c-0.181-0.078-0.181-0.398-0.039-0.5l0.461-0.1c0.619-0.141,0.84-0.36,1.24-1.32l1.92-4.601c0.34-0.82,0.479-1.301,0.521-1.681
			c0.358-0.141,0.739-0.521,0.842-0.761c0.158-0.06,0.279-0.02,0.317,0.101c0.08,0.2,0.4,1.24,0.861,2.46l1.8,4.781
			c0.239,0.66,0.42,0.92,1.141,1.062l0.319,0.06c0.181,0.103,0.142,0.46-0.062,0.5c-0.521-0.04-0.979-0.06-1.659-0.06
			c-0.722,0-1.302,0.02-1.802,0.06c-0.198-0.06-0.219-0.42-0.039-0.5l0.399-0.06c0.521-0.08,0.5-0.2,0.261-0.82l-0.479-1.3
			c-0.16-0.461-0.222-0.479-0.681-0.479h-1.899V23.848z M224.747,23.207c0.521,0,0.58-0.04,0.358-0.62l-0.619-1.7
			c-0.159-0.46-0.239-0.62-0.301-0.72h-0.039c-0.062,0.08-0.142,0.26-0.319,0.68l-0.722,1.78c-0.221,0.54-0.181,0.58,0.261,0.58
			H224.747z"/>
		<path fill="#FFFFFF" d="M238.368,25.146c0-0.92-0.021-1.039-0.923-1.199l-0.639-0.12c-0.143-0.101-0.143-0.38,0.021-0.5
			c0.801,0.04,1.681,0.062,2.261,0.062c0.561,0,1.221-0.021,1.7-0.062c0.159,0.101,0.18,0.381,0.062,0.5l-0.359,0.079
			c-0.521,0.121-0.602,0.24-0.602,1.102v0.561c0,0.479,0.041,0.779,0.319,0.922c0.08,0.06,0.08,0.238-0.021,0.279
			c-0.222,0-0.642,0.119-1.201,0.221c-0.539,0.1-1.239,0.238-2,0.238c-1.78,0-3.239-0.42-4.301-1.479
			c-0.84-0.84-1.24-2.001-1.24-3.041c0-1.12,0.4-2.26,1.261-3.141c0.92-0.94,2.28-1.58,4.422-1.58c1.101,0,2.08,0.28,2.681,0.4
			c0.021,0.399,0.061,1.2,0.18,2.26c-0.1,0.181-0.398,0.2-0.521,0.021c-0.521-1.58-1.381-2.101-2.84-2.101
			c-2.103,0-3.401,1.62-3.401,3.959c0,2.463,1.521,4.121,3.94,4.121c1.062,0,1.201-0.198,1.201-1V25.146L238.368,25.146z"/>
		<path fill="#FFFFFF" d="M245.366,20.367c0-1.381-0.08-1.44-0.841-1.601l-0.28-0.061c-0.14-0.08-0.119-0.42,0.041-0.5
			c0.58,0.04,1.2,0.061,1.858,0.061h2.842c0.882,0,1.681-0.021,1.859-0.061c0.021,0.24,0.12,1.181,0.221,2.041
			c-0.08,0.16-0.399,0.18-0.521,0.04c-0.12-0.521-0.239-0.78-0.36-0.961c-0.317-0.479-1.22-0.479-1.699-0.479h-0.881
			c-0.699,0-0.721,0.02-0.721,0.64v2.221c0,0.359,0,0.4,0.381,0.4h0.939c1.061,0,1.16-0.162,1.32-0.761l0.101-0.38
			c0.101-0.14,0.399-0.12,0.5,0.04c-0.041,0.58-0.041,0.94-0.041,1.4c0,0.5,0,0.859,0.041,1.439c-0.101,0.159-0.399,0.18-0.5,0.041
			l-0.101-0.382c-0.16-0.603-0.262-0.761-1.32-0.761h-0.939c-0.381,0-0.381,0.062-0.381,0.46v1.438c0,0.603,0.04,1.223,0.221,1.44
			c0.181,0.2,0.541,0.28,1.681,0.28c1.28,0,2.021-0.061,2.603-1.66c0.141-0.141,0.461-0.102,0.521,0.08
			c-0.103,0.84-0.382,1.84-0.603,2.22c-1.26-0.04-2.32-0.06-3.4-0.06h-1.76c-0.641,0-1.262,0.02-2.221,0.06
			c-0.16-0.06-0.182-0.399-0.041-0.5l0.541-0.06c0.859-0.103,0.939-0.221,0.939-1.603L245.366,20.367L245.366,20.367z"/>
		<path fill="#FFFFFF" d="M263.208,21.347c0-2-0.12-2.521-0.86-2.58l-0.64-0.061c-0.142-0.119-0.12-0.399,0.039-0.5
			c0.739,0.04,1.2,0.061,1.78,0.061s1.021-0.021,1.66-0.061c0.16,0.101,0.16,0.4,0.021,0.5l-0.601,0.061
			c-0.521,0.06-0.68,0.6-0.68,2.58v3.361c0,0.399,0,2.021,0.059,2.319c-0.059,0.121-0.239,0.221-0.42,0.181
			c-0.219-0.278-0.619-0.7-1.858-2.04l-3.041-3.241c-0.761-0.8-1.28-1.32-1.541-1.54c-0.079,0-0.079,0.22-0.079,0.84v2.641
			c0,2.001,0.12,2.521,0.859,2.581l0.641,0.06c0.159,0.12,0.12,0.4-0.04,0.5c-0.739-0.04-1.2-0.06-1.78-0.06
			c-0.578,0-0.959,0.02-1.658,0.06c-0.16-0.079-0.16-0.399-0.021-0.5l0.602-0.06c0.521-0.061,0.681-0.602,0.681-2.581v-3.58
			c0-0.66-0.021-0.94-0.42-1.24c-0.16-0.12-0.541-0.24-0.739-0.28l-0.302-0.061c-0.142-0.119-0.142-0.42,0.041-0.5
			c0.761,0.061,1.299,0.061,1.72,0.061c0.28,0,0.562-0.021,0.801-0.061c0.399,0.761,1.143,1.621,1.961,2.461l1.881,1.939
			c0.439,0.439,1.602,1.701,1.819,1.859c0.12-0.039,0.12-0.318,0.12-0.8L263.208,21.347L263.208,21.347z"/>
	</g>
</g>
</svg>
