<?xml version="1.0" encoding="utf-8"?>
<!-- Generator: Adobe Illustrator 19.2.1, SVG Export Plug-In . SVG Version: 6.00 Build 0)  -->
<svg version="1.1" xmlns="http://www.w3.org/2000/svg" xmlns:xlink="http://www.w3.org/1999/xlink" x="0px" y="0px"
	 viewBox="0 0 109 148" style="enable-background:new 0 0 109 148;" xml:space="preserve">
<style type="text/css">
	.st0{fill:#66609E;}
	.st1{fill:#FFFFFF;}
	.st2{fill:#2A216A;}
	.st3{fill:#E13718;}
	.st4{fill:#365AA5;}
	.st5{fill:#999632;}
	.st6{fill:#46743C;}
	.st7{fill:#901A1E;}
</style>
<g id="TEO">
</g>
<g id="SUND">
</g>
<g id="SAMF">
</g>
<g id="HUM">
</g>
<g id="JURA">
</g>
<g id="SCI">
	<g>
		<path class="st6" d="M107,39.8c0,21.9-17.8,39.8-39.7,39.8c-22,0-39.7-17.8-39.7-39.8C27.6,17.8,45.3,0,67.3,0
			C89.2,0,107,17.8,107,39.8"/>
		<path class="st6" d="M37.7,97.8c0,10.4-8.4,18.8-18.8,18.8C8.5,116.6,0,108.2,0,97.8c0-10.4,8.5-18.8,18.9-18.8
			C29.3,78.9,37.7,87.4,37.7,97.8"/>
		<path class="st6" d="M77.1,138.2c0,5.4-4.4,9.8-9.8,9.8c-5.4,0-9.8-4.4-9.8-9.8c0-5.4,4.4-9.8,9.8-9.8
			C72.7,128.3,77.1,132.7,77.1,138.2"/>
		<g>
			<g>
				<path class="st1" d="M95.5,25.3c-0.7-1.4-1.7-2.9-2.1-3.5c0.1-0.1,0.2-0.3,0.4-0.3c0.1,0.1,0.1,0.1,0.1,0.2
					c0.3,0.3,0.4,0.3,1.2-0.2c0.5-0.3,1.5-1,1.8-1.2c0.4-0.2,0.9-0.5,0.6-1c0-0.1-0.1-0.1-0.1-0.2c0-0.1,0.2-0.3,0.3-0.2
					c0.5,0.8,1,1.6,1.3,2.1c0,0.1-0.2,0.3-0.4,0.2c-0.1-0.1-0.1-0.1-0.1-0.2c-0.3-0.4-0.8-0.1-1.2,0.1c-0.6,0.4-1.2,0.8-1.8,1.1
					c-0.6,0.4-0.8,0.5-0.6,0.9c0,0.1,0.1,0.3,0.3,0.5c0.1,0.2,0.3,0.5,0.5,0.6c0.2,0.1,0.6,0.1,0.7,0.1c0.1,0,0.3-0.1,0.4-0.1
					c0.1,0,0.2,0.2,0.1,0.4C96.7,25,96.1,25.2,95.5,25.3 M97.9,31.6c0.7,0,1.2-0.1,1.6-0.1c0.1-0.2,0-0.4-0.1-0.4
					c-0.1,0-0.3,0-0.4,0c-0.1,0-0.5-0.1-0.7-0.3c-0.2-0.2-0.3-0.5-0.4-0.7c-0.1-0.2-0.1-0.4-0.1-0.5c-0.1-0.5,0.1-0.5,0.8-0.8
					c0.6-0.2,1.3-0.5,2-0.7c0.4-0.2,1-0.4,1.2,0.1c0,0,0,0.1,0.1,0.2c0.1,0,0.4,0,0.4-0.2c-0.2-0.6-0.5-1.4-0.9-2.3
					c-0.1,0-0.3,0-0.4,0.2c0,0.1,0,0.1,0.1,0.2c0.2,0.5-0.4,0.7-0.8,0.8c-0.3,0.1-1.5,0.5-2,0.7c-0.8,0.3-1,0.3-1.2-0.1
					c0,0-0.1-0.1-0.1-0.2c-0.1,0-0.3,0.1-0.4,0.2C96.9,28.3,97.5,30,97.9,31.6 M88,14.8c0.1-0.1,0.1-0.2,0.3-0.4
					c0.3-0.4,0.4-0.3,0.6-0.2c0.1,0,0.1,0.1,0.2,0.1c0.1,0,0.3-0.3,0.2-0.4c-0.5-0.3-1.2-0.8-1.9-1.4c-0.2,0-0.3,0.2-0.3,0.3
					c0.1,0.1,0.2,0.2,0.3,0.3c0.3,0.3,0.3,0.3,0,0.7c-0.1,0.2-0.2,0.3-0.3,0.4c-0.2,0.2-0.4,0.3-0.7,0.1c-0.1-0.1-0.2-0.1-0.4-0.3
					c-0.3-0.2-1.3-1.2-0.3-2.7c1-1.7,2.4-1.3,3-0.9c0.5,0.3,0.7,0.7,0.7,1c0,0.4-0.1,0.7-0.2,0.9c0,0.1,0.3,0.2,0.4,0.2
					c0.3-0.5,0.5-0.8,0.8-1.2c-0.1-0.2-0.4-0.6-1.4-1.3c-0.8-0.6-1.9-1-3-0.5c-0.8,0.4-1.5,1.3-1.6,2.4c0,1.3,0.7,2,1.4,2.5
					c0.8,0.6,1.4,0.8,1.8,1C87.8,15.1,87.9,15,88,14.8 M79.5,69.7c1.1,1.3,1.3,1.4,2.2,2.5c0.3,0.4,0.4,0.5,0.1,0.7
					c-0.1,0-0.2,0.1-0.2,0.1c0,0.1,0.1,0.4,0.2,0.4c0.7-0.3,1.5-0.6,2.2-1c0.1-0.2-0.1-0.3-0.2-0.4c-0.1,0-0.2,0.1-0.3,0.1
					c-0.4,0.1-0.6,0-1-0.4c-0.2-0.3-2.8-3.1-2.9-3.2c-0.1-0.1-0.1,0-0.2,0c0,0-0.4,0.4-0.6,0.5c0,1.3,0,3.3-0.1,4.1
					c0,0.8-0.2,0.9-0.4,1c-0.1,0-0.2,0.1-0.3,0.1c-0.1,0.1,0,0.4,0.1,0.4c0.6-0.2,1.4-0.4,1.9-0.7c0.1-0.1,0-0.4-0.1-0.4
					c-0.1,0-0.1,0.1-0.2,0.1c-0.3,0.1-0.5,0.1-0.5-0.6C79.5,72.1,79.5,70.8,79.5,69.7 M85.4,65.4c-0.7,0.5-1.4,1.1-1.5,1.3
					c0.2,0.4,0.4,0.9,0.6,1.3c0.1,0,0.4-0.1,0.4-0.2c-0.1-0.2-0.2-0.5-0.1-0.8c0.1-0.4,0.4-0.8,0.8-1.1c0.4-0.2,1.6-0.8,2.7,0.7
					c1.1,1.6,0.2,2.7-0.3,3.1c-0.5,0.3-1,0.3-1.3,0.2c-0.3-0.1-0.5-0.3-0.7-0.5c-0.1,0-0.3,0.2-0.3,0.3c0.3,0.4,0.6,0.7,0.9,1.1
					c0.2-0.1,1.1-0.4,1.8-0.9c0.8-0.5,1.5-1.3,1.5-2.5c0-0.9-0.6-1.9-1.6-2.4C87,64.6,86.1,65,85.4,65.4 M99.6,35.9
					c1.5-0.8,1.7-0.9,3-1.5c0.4-0.2,0.6-0.3,0.7,0.1c0,0.1,0,0.2,0,0.2c0.1,0.1,0.4,0,0.4-0.1c-0.1-0.8-0.2-1.6-0.4-2.4
					c-0.1-0.1-0.4,0-0.4,0.1c0,0.1,0,0.2,0,0.3c0,0.4-0.2,0.6-0.7,0.9c-0.3,0.2-3.7,1.9-3.8,2c-0.1,0-0.1,0.1,0,0.2
					c0,0,0.3,0.5,0.4,0.7c1.3,0.3,3.2,0.9,4,1.1c0.8,0.2,0.9,0.4,0.9,0.6c0,0.1,0,0.2,0,0.3c0.1,0.1,0.4,0.1,0.4,0
					c0-0.6-0.1-1.5-0.1-2c-0.1-0.1-0.4-0.1-0.4,0c0,0.1,0,0.2,0,0.2c0,0.3-0.1,0.4-0.7,0.3C101.9,36.5,100.6,36.2,99.6,35.9
					 M36.8,29.8c-1.7,0.1-2,0.1-3.3,0.2c-0.5,0-0.7,0-0.6-0.4c0-0.1,0-0.2,0-0.2c-0.1-0.1-0.3-0.2-0.4-0.1c-0.2,0.8-0.4,1.5-0.6,2.4
					c0.1,0.2,0.3,0.1,0.4,0.1c0-0.1,0.1-0.2,0.1-0.3c0.2-0.4,0.4-0.4,1-0.5c0.4,0,4.2-0.2,4.3-0.2c0.1,0,0.1-0.1,0.1-0.1
					c0-0.1,0-0.6,0-0.8c-1.1-0.8-2.6-2.1-3.2-2.6c-0.6-0.5-0.6-0.7-0.6-0.9c0-0.1,0.1-0.2,0.1-0.3c-0.1-0.1-0.3-0.2-0.4-0.2
					c-0.2,0.5-0.5,1.4-0.7,1.9c0.1,0.1,0.3,0.2,0.4,0.2c0-0.1,0.1-0.1,0.1-0.2c0.1-0.2,0.2-0.4,0.7,0C35,28.3,36,29.2,36.8,29.8
					 M70.8,71c-0.1,0.7-0.1,1.2-0.1,1.6c0.2,0.2,0.4,0.1,0.4,0c0-0.1,0-0.3,0.1-0.4c0-0.1,0.2-0.4,0.4-0.6c0.2-0.2,0.5-0.2,0.8-0.3
					c0.2,0,0.5-0.1,0.5-0.1c0.5,0,0.5,0.1,0.6,0.9c0.1,0.6,0.3,1.3,0.4,2.1c0.1,0.5,0.2,1-0.3,1.1c0,0-0.1,0-0.2,0.1
					c-0.1,0.1,0,0.4,0.1,0.4c0.6-0.1,1.5-0.3,2.4-0.5c0.1-0.1,0-0.3-0.1-0.4c-0.1,0-0.1,0-0.2,0C75,75,74.9,74.5,74.8,74
					c-0.1-0.4-0.3-1.5-0.4-2.1c-0.2-0.9-0.1-1,0.3-1.1c0.1,0,0.1,0,0.2-0.1c0-0.1,0-0.3-0.1-0.4C74.1,70.5,72.4,70.8,70.8,71
					 M99.3,42.3c0-0.5,0.5-0.4,1.1-0.3c0.5,0.1,2,0.3,2.6,0.4c-0.3,0.1-2.2,0.6-2.9,0.8c-0.7,0.2-1.3,0.4-1.4,0.4
					c-0.1,0.1-0.1,0.2,0,0.3c0.2,0.1,0.5,0.3,1.3,0.8c0.7,0.5,2.1,1.4,2.6,1.7c-0.4,0-2.1-0.2-2.8-0.3c-0.8-0.1-0.8-0.2-0.8-0.5
					c0,0,0-0.1,0-0.2c-0.1-0.1-0.3-0.1-0.4-0.1c-0.1,0.7-0.2,1-0.5,2.2c0.1,0.1,0.3,0.2,0.4,0.1c0-0.1,0-0.1,0.1-0.3
					c0.1-0.3,0.4-0.3,1.2-0.3c0.6,0,1.7,0.2,2.4,0.3c0.7,0.1,0.7,0.3,0.6,0.6c0,0.1,0,0.1,0,0.2c0.1,0.1,0.3,0.2,0.4,0.1
					c0.1-0.6,0.3-1.4,0.4-1.9c-0.3-0.1-0.7-0.3-1-0.5c-0.1-0.1-2.1-1.3-2.4-1.6c0.7-0.3,2.3-0.7,2.9-0.9c0.5-0.2,0.7-0.2,1-0.1
					c0.1-0.8,0.1-1.2,0.1-2c-0.1-0.1-0.3-0.1-0.4,0c0,0.1,0,0.1,0,0.2c0,0.6-0.6,0.5-1.1,0.4c-0.3,0-1.8-0.3-2.3-0.4
					c-0.8-0.2-0.8-0.4-0.9-0.7c0-0.1,0-0.1,0-0.2c-0.1-0.1-0.3-0.1-0.4,0c0,0.7,0,1.2-0.1,2c0.1,0.1,0.3,0.1,0.4,0L99.3,42.3z
					 M68.4,5.7c0-0.5-0.4-0.8-0.8-0.8c-0.5,0-0.8,0.4-0.8,0.8c0,0.5,0.4,0.8,0.8,0.8C68,6.5,68.4,6.1,68.4,5.7 M68.6,74.8
					c0,0.2-0.1,0.4-0.2,0.5c-0.1,0.2-0.3,0.4-0.8,0.4c-0.1,0-0.4,0-0.7,0c0,0,0.1-2.5,0.1-3c0-0.9,0.1-1,0.5-1.1c0.1,0,0.1,0,0.2,0
					c0.1-0.1,0.1-0.3,0-0.4c-0.7,0-1.7,0-2.5-0.1c-0.1,0.1-0.1,0.4,0,0.4c0.1,0,0.2,0,0.3,0c0.4,0.1,0.5,0.3,0.5,1.1
					c0,0.4,0,0.4-0.1,3.1c-0.4,0-0.8,0-0.9-0.1c-0.5-0.1-0.6-0.4-0.6-0.6c0-0.1-0.1-0.3-0.1-0.4c-0.1-0.1-0.4-0.1-0.5,0
					c0,0.2,0,1.2,0,1.5c2.1,0.2,3.2,0.2,5,0.2c0-0.1,0.3-1.2,0.3-1.4C69,74.8,68.8,74.7,68.6,74.8 M53.7,72
					c-0.1,0.1-0.2,0.3-0.4,0.4c-0.2,0.1-0.5,0.2-0.9,0c-0.1-0.1-0.3-0.2-0.6-0.3c0,0,1.1-2.2,1.4-2.7c0.4-0.8,0.5-0.9,0.9-0.7
					c0.1,0,0.1,0,0.2,0.1c0.1-0.1,0.2-0.3,0.2-0.4c-0.7-0.3-1.5-0.7-2.2-1.1c-0.1,0-0.3,0.3-0.2,0.4c0.1,0.1,0.2,0.1,0.2,0.2
					c0.4,0.3,0.3,0.5,0,1.2c-0.2,0.4-0.2,0.3-1.4,2.7c-0.3-0.2-0.7-0.4-0.8-0.4c-0.4-0.2-0.3-0.6-0.3-0.8c0-0.1,0.1-0.3,0.1-0.4
					c-0.1-0.1-0.3-0.2-0.4-0.2c-0.1,0.2-0.5,1.1-0.7,1.3c1.8,1.1,2.8,1.6,4.5,2.3c0.1-0.1,0.8-1,0.9-1.1C54.1,72.1,53.8,72,53.7,72
					 M94.9,56.1c0-0.1,0.1-0.1,0.1-0.2c0.3-0.3,0.5-0.5,1.1-0.2c0.1,0.1,0.6,0.4,0.8,0.5c-0.3,0.5-0.4,0.8-0.7,1.2
					c0.1,0.1,0.3,0.3,0.5,0.3c0.3-0.5,0.4-0.7,0.7-1.3c0.1,0.1,1.3,0.7,1.4,0.8c0.1,0.1,0.2,0.1,0.1,0.4c-0.1,0.2-0.3,0.5-0.6,0.9
					c-0.5,0.7-1.4,0.3-1.7,0.2c-0.2,0.1-0.2,0.3-0.2,0.5c0.4,0.2,1.2,0.6,1.6,0.8c1.1-1.6,1.6-2.6,2.2-3.9c-0.1-0.1-0.2-0.2-0.4-0.2
					c0,0-0.1,0.1-0.1,0.2c-0.3,0.5-0.6,0.3-1.2,0c-0.4-0.2-1.1-0.6-1.9-1c-0.9-0.4-0.8-0.6-0.7-1c0-0.1,0-0.1,0.1-0.2
					c-0.1-0.1-0.3-0.2-0.4-0.2c-0.4,0.8-0.8,1.6-1.2,2.3C94.6,55.9,94.8,56,94.9,56.1 M78.9,10.4c0.7,0.3,1.4,0.6,2.3,1
					c0.1-0.1,0.2-0.3,0.2-0.4c-0.1-0.1-0.2-0.1-0.2-0.1c-0.4-0.3-0.3-0.5,0-1.2c0.2-0.4,0.6-1.2,0.9-1.9c0.2-0.5,0.4-0.9,1-0.7
					c0,0,0.1,0,0.2,0.1c0.1,0,0.2-0.3,0.2-0.4C82.8,6.5,81.8,6,81,5.7c-0.1,0-0.2,0.3-0.1,0.4c0.1,0,0.1,0.1,0.2,0.1
					c0.5,0.3,0.2,0.7,0.1,1.2c-0.2,0.4-0.6,1.4-0.8,1.9c-0.4,0.8-0.5,0.9-0.9,0.8c-0.1,0-0.2,0-0.3-0.1C79,10.1,78.9,10.3,78.9,10.4
					 M49.2,65.2c-0.6-0.4-1.2-0.9-2-1.6c-0.1,0-0.3,0.2-0.3,0.3c0.1,0.1,0.2,0.1,0.2,0.2c0.3,0.3,0.2,0.5-0.3,1.1
					c-0.3,0.3-0.8,1-1.3,1.6c-0.3,0.4-0.6,0.8-1.1,0.5c0,0-0.1-0.1-0.2-0.1c-0.1,0-0.3,0.2-0.3,0.3c0.5,0.4,1.3,1.1,2.1,1.6
					c0.1,0,0.3-0.2,0.2-0.4c-0.1-0.1-0.1-0.1-0.2-0.2c-0.4-0.4,0-0.8,0.2-1.1c0.3-0.4,0.9-1.2,1.3-1.7c0.6-0.7,0.7-0.7,1.1-0.5
					c0.1,0,0.2,0.1,0.2,0.1C49.1,65.6,49.2,65.4,49.2,65.2 M89.8,17.5c0.5,0.5,1.1,1.1,1.7,1.9c0.1,0,0.3-0.2,0.3-0.3
					c-0.1-0.1-0.1-0.2-0.2-0.2c-0.2-0.4-0.1-0.6,0.4-1.1c0.3-0.3,1-0.9,1.6-1.4c0.4-0.4,0.7-0.6,1.2-0.3c0,0,0.1,0.1,0.2,0.2
					c0.1,0,0.3-0.2,0.3-0.3c-0.4-0.5-1.1-1.3-1.8-2c-0.1,0-0.3,0.2-0.3,0.3c0.1,0.1,0.1,0.1,0.2,0.2c0.3,0.4-0.1,0.8-0.4,1.1
					c-0.3,0.3-1.1,1-1.5,1.5c-0.7,0.6-0.8,0.6-1.2,0.3c-0.1,0-0.1-0.1-0.2-0.2C90,17.2,89.8,17.4,89.8,17.5 M51.5,12.7
					c-0.2-0.6-0.4-1.2-0.5-1.5c-0.2-0.1-0.4,0.1-0.4,0.2c0,0.1,0.1,0.3,0.1,0.4c0,0.1,0,0.5-0.1,0.7c-0.1,0.2-0.4,0.4-0.6,0.6
					c-0.2,0.1-0.4,0.2-0.5,0.3c-0.4,0.2-0.5,0.1-1-0.5c-0.4-0.5-0.8-1.1-1.2-1.7c-0.3-0.4-0.6-0.8-0.2-1.2c0,0,0.1-0.1,0.2-0.1
					c0-0.2-0.1-0.3-0.3-0.3c-0.5,0.3-1.3,0.9-2,1.5c0,0.1,0.1,0.3,0.3,0.3c0.1,0,0.1-0.1,0.2-0.1c0.5-0.3,0.7,0.2,1,0.6
					c0.2,0.3,0.9,1.3,1.3,1.7c0.5,0.7,0.5,0.8,0.2,1.2c0,0-0.1,0.1-0.2,0.2c0,0.1,0.2,0.3,0.3,0.3C48.7,14.5,50.2,13.5,51.5,12.7
					 M73,8.6c0,0,0.5,0.4,1.6,0.7c1.1,0.3,2-0.2,2.2-1.1c0.2-1-0.5-1.5-1.1-2c-0.7-0.5-1-0.8-0.9-1.2c0-0.3,0.3-0.8,1.2-0.5
					c0.9,0.3,0.8,1.1,0.8,1.2c0.1,0.1,0.3,0.2,0.5,0.1c0.1-0.3,0.2-1.1,0.1-1.2c-0.2-0.1-0.6-0.3-1.4-0.5c-1.7-0.4-2.2,0.7-2.2,1.3
					c0,0.5,0.2,0.9,1.1,1.6c0.7,0.5,1,0.9,0.8,1.4c-0.1,0.3-0.5,0.6-1.1,0.5c-1-0.2-0.9-0.9-0.9-1.5c-0.1-0.1-0.4-0.1-0.5-0.1
					C73.1,7.4,73,8,73,8.6 M45,61.8c0,0-0.2-0.6-0.9-1.5c-0.7-0.8-1.8-1-2.5-0.4c-0.8,0.7-0.5,1.5-0.3,2.2c0.2,0.8,0.3,1.2,0,1.5
					c-0.2,0.2-0.7,0.4-1.2-0.2c-0.6-0.7,0-1.3,0.1-1.4c0-0.2-0.2-0.3-0.3-0.3c-0.2,0.2-0.8,0.8-0.8,0.9c0.1,0.2,0.3,0.6,0.8,1.3
					c1.1,1.3,2.2,0.7,2.5,0.2c0.3-0.4,0.4-0.8,0-2c-0.3-0.8-0.3-1.3,0.1-1.6c0.3-0.2,0.8-0.2,1.2,0.2c0.7,0.8,0.2,1.3-0.1,1.8
					c0,0.2,0.2,0.3,0.3,0.4C44.2,62.6,44.6,62.2,45,61.8 M53.7,11.5c0.6-0.3,1.4-0.7,2.3-1c0-0.1-0.1-0.4-0.2-0.4
					c-0.1,0-0.2,0.1-0.3,0.1c-0.4,0.1-0.6-0.1-0.9-0.8c-0.2-0.4-0.5-1.2-0.8-1.9c-0.2-0.5-0.4-0.9,0.1-1.2c0,0,0.1-0.1,0.2-0.1
					c0.1-0.1,0-0.4-0.2-0.4c-0.6,0.3-1.6,0.7-2.4,1.1c0,0.1,0.1,0.4,0.2,0.4c0.1,0,0.1-0.1,0.2-0.1c0.5-0.2,0.7,0.3,0.9,0.7
					c0.2,0.4,0.6,1.4,0.9,1.9c0.4,0.8,0.3,0.9-0.1,1.2c-0.1,0-0.2,0.1-0.2,0.1C53.5,11.2,53.6,11.4,53.7,11.5 M58.8,9.3
					c0,0,0.6,0.1,1.7-0.1c1.1-0.2,1.7-1.1,1.5-2c-0.2-1-1.1-1.1-1.8-1.3c-0.8-0.2-1.2-0.3-1.3-0.7c-0.1-0.3,0-0.8,0.8-1
					c0.9-0.2,1.2,0.6,1.2,0.7c0.2,0.1,0.3,0,0.4-0.1c-0.1-0.3-0.3-1-0.4-1.1c-0.3,0-0.7-0.1-1.5,0.1c-1.7,0.4-1.6,1.6-1.4,2.1
					c0.2,0.4,0.5,0.7,1.7,1c0.8,0.2,1.3,0.4,1.3,0.9c0,0.4-0.1,0.8-0.8,0.9c-1,0.2-1.2-0.4-1.5-1c-0.2,0-0.4,0-0.5,0.1
					C58.5,8.3,58.6,8.8,58.8,9.3 M60.6,70.4c0.2,0,1.2,0.2,1.8,0.4c0.1,0.1,0.1,0.3-0.1,0.4c0,0-0.1,0-0.2,0c-0.2,0-0.4,0-0.9,0.7
					c-0.5,0.6-2.3,3.1-2.4,3.3c-0.1,0-0.8,0-0.8,0.1c0,0-0.1,0-0.1-0.1c0-0.1-0.4-3.9-0.4-4.3c0-0.2,0-0.9-0.4-1
					c-0.1,0-0.1-0.1-0.3-0.1c0-0.1,0-0.3,0.2-0.4c1,0.3,1.8,0.6,2.1,0.7c0.1,0.1,0,0.3-0.1,0.4c0,0-0.1,0-0.2,0
					c-0.4-0.1-0.4,0.2-0.4,0.6c0,0.4,0,0.4,0,0.6c0.2,0.1,1.7,0.4,1.9,0.5c0.1-0.1,0.1-0.2,0.3-0.4c0.3-0.4,0.3-0.6,0-0.7
					c-0.1,0-0.1,0-0.2-0.1C60.4,70.7,60.4,70.4,60.6,70.4 M60.1,72.4l-1.6-0.4l0.2,2.2c0,0,0,0,0,0c0,0,0.1,0,0.1,0L60.1,72.4z
					 M32.5,38.9c-0.2,0-0.4-0.1-0.5-0.3c-0.2-0.1-0.3-0.3-0.3-0.8c0-0.1,0-0.4,0.1-0.7c0,0,2.5,0.2,3,0.2c0.9,0.1,1,0.1,1,0.6
					c0,0.1,0,0.1,0,0.2c0.1,0.1,0.3,0.1,0.4,0c0-0.7,0.1-1.7,0.2-2.4c-0.1-0.1-0.4-0.1-0.4-0.1c0,0.1,0,0.2-0.1,0.3
					c-0.1,0.4-0.3,0.5-1.1,0.4c-0.4,0-0.4,0-3-0.3c0-0.4,0.1-0.8,0.1-0.9c0.1-0.5,0.5-0.5,0.6-0.6c0.1,0,0.3,0,0.4,0
					c0.1-0.1,0.1-0.4,0-0.5c-0.2,0-1.2-0.1-1.5-0.1c-0.3,2-0.4,3.2-0.4,5c0.1,0,1.2,0.4,1.3,0.4C32.5,39.3,32.5,39,32.5,38.9
					 M36.5,44.7c0,0.2,0.2,1.2,0.3,1.8c0,0.1-0.3,0.2-0.4,0.1c0,0,0-0.1-0.1-0.2c-0.1-0.2-0.2-0.4-1-0.6c-0.6-0.2-2.6-0.7-3.5-0.9
					c-0.3-0.1-0.5-0.1-0.5-0.1c0-0.1-0.3-0.8-0.3-0.8c0,0,0-0.1,0-0.1c0.1,0,3.5-1.8,3.8-2c0.2-0.1,0.8-0.4,0.8-0.8
					c0-0.1,0-0.1,0-0.3c0.1-0.1,0.3-0.1,0.4,0c0.1,1,0.1,1.9,0.2,2.2c-0.1,0.1-0.3,0.1-0.4,0c0-0.1,0-0.1,0-0.2
					c-0.1-0.4-0.4-0.3-0.7-0.1c-0.3,0.2-0.3,0.2-0.5,0.3c0,0.2,0.2,1.7,0.3,2c0.1,0,0.2,0,0.5,0.1c0.5,0.1,0.7,0.1,0.7-0.3
					c0-0.1,0-0.1,0-0.2C36.2,44.6,36.4,44.5,36.5,44.7 M34.5,45l-0.2-1.7l-2,1c0,0,0,0,0,0.1c0,0,0,0,0,0L34.5,45z M44.1,18.8
					c-0.2,0.2-0.8,0.9-1.2,1.4c-0.1,0-0.3-0.1-0.3-0.3c0,0,0.1-0.1,0.1-0.2c0.1-0.2,0.2-0.4-0.2-1.1c-0.3-0.6-1.1-2.4-1.5-3.3
					c-0.1-0.2-0.3-0.4-0.3-0.4c0-0.1,0.4-0.7,0.4-0.8c0,0,0-0.1,0.1,0c0.1,0,3.6,1.6,3.9,1.7c0.2,0.1,0.8,0.4,1.1,0.1
					c0.1-0.1,0.1-0.1,0.2-0.2c0.1,0,0.3,0.2,0.3,0.3c-0.8,0.7-1.4,1.3-1.6,1.5c-0.1,0-0.3-0.1-0.3-0.3c0,0,0.1-0.1,0.1-0.1
					c0.3-0.3,0-0.5-0.3-0.6c-0.4-0.2-0.3-0.2-0.5-0.2c-0.2,0.2-1.2,1.2-1.4,1.4c0,0.1,0.1,0.2,0.2,0.5c0.2,0.5,0.4,0.6,0.7,0.3
					c0.1-0.1,0.1-0.1,0.1-0.1C43.9,18.5,44.1,18.6,44.1,18.8 M42.6,17.4l1.1-1.2l-2-0.9c0,0,0,0-0.1,0c0,0,0,0.1,0,0.1L42.6,17.4z
					 M91.5,60c0.1-0.2,0.8-0.9,1.2-1.4c0.1,0,0.3,0.1,0.3,0.3c0,0-0.1,0.1-0.1,0.2c-0.1,0.2-0.2,0.4,0.2,1.1
					c0.4,0.7,1.7,3.5,1.8,3.7c0,0.1-0.3,0.7-0.3,0.8c0,0,0,0.1-0.1,0c-0.1,0-3.7-1.5-4-1.6c-0.2-0.1-0.8-0.4-1.1-0.1
					c-0.1,0.1-0.1,0.1-0.2,0.2c-0.1,0-0.3-0.2-0.3-0.3c0.8-0.7,1.4-1.3,1.6-1.6c0.1,0,0.3,0.1,0.3,0.3c0,0-0.1,0.1-0.1,0.1
					c-0.3,0.3,0,0.5,0.4,0.6c0.4,0.1,0.3,0.1,0.5,0.2c0.2-0.2,1.1-1.3,1.3-1.5c0-0.1-0.1-0.2-0.2-0.5c-0.2-0.5-0.4-0.6-0.7-0.3
					c-0.1,0.1-0.1,0.1-0.1,0.1C91.7,60.3,91.5,60.2,91.5,60 M93.1,61.4L92,62.6l2.1,0.8c0,0,0,0,0.1,0c0,0,0-0.1,0-0.1L93.1,61.4z
					 M39.4,53.7c-0.2-0.3-0.7-1.4-0.8-1.8c-0.2-0.1-0.3,0-0.4,0.2c0,0.1,0,0.1,0.1,0.2c0.1,0.4,0,0.5-0.8,0.9c-0.5,0.3-2,1-2.4,1.1
					c0.1-0.3,2.3-4.5,2.6-5.2c0-0.1-0.2-0.3-0.3-0.3c-0.1,0.1-0.2,0.2-0.4,0.2c-0.8,0.3-2.6,0.8-3.1,0.9c-0.8,0.3-1,0.2-1.2-0.2
					c0-0.1-0.1-0.2-0.1-0.2c-0.1-0.1-0.4,0-0.4,0.1c0.1,0.5,0.4,1.4,0.7,2.1c0.1,0.1,0.3,0,0.4-0.1c0-0.1-0.1-0.2-0.1-0.3
					c-0.1-0.5,0.1-0.6,0.9-0.8c0.4-0.1,1.7-0.5,2.1-0.6c-0.2,0.4-2,3.9-2,4c-0.1,0.3-0.2,0.4-0.3,0.4c0.1,0.1,0.1,0.1,0.1,0.2
					c0.2,0.4,0.5,1.1,0.7,1.4c0.1,0,0.3-0.1,0.4-0.2c0-0.1-0.1-0.2-0.1-0.2c-0.2-0.5,0.2-0.6,0.8-0.8c0.5-0.2,1.3-0.6,1.9-0.9
					c0.7-0.3,1-0.3,1.2,0c0,0.1,0.1,0.2,0.1,0.2C39.2,54,39.4,53.9,39.4,53.7 M36,22.3c0,0,0-0.1,0.1-0.2c0.1-0.1,0.2-0.3,0.3-0.5
					c0.1-0.2,0.3-0.4,0.6-0.5c0.3-0.1,0.6,0,0.8,0.1c0.2,0.1,0.4,0.2,0.6,0.5c0.2,0.3,0.1,0.7-0.1,0.9l0.1,0.2
					c0.4-0.1,2.6-0.4,3-0.5c0.3-0.5,0.7-1.1,0.8-1.2c-0.1-0.1-0.2-0.2-0.4-0.2c-0.1,0.1-0.1,0.2-0.2,0.2c-0.3,0.3-0.4,0.3-1,0.5
					c-0.6,0.1-1.2,0.2-1.8,0.2c0.1-0.6,0.1-1.2-0.6-1.6c-1-0.6-1.7,0-2,0.5c-0.1,0.2-0.3,0.4-0.4,0.6c-0.1,0.2-0.5,0.8-1.1,2.1
					c0,0.1,0.3,0.2,0.4,0.2c0-0.1,0.1-0.1,0.1-0.2c0.2-0.4,0.4-0.4,1.2,0.1c0.3,0.2,1.4,0.7,1.9,1c0.8,0.4,0.9,0.5,0.7,1
					c0,0.1-0.1,0.1-0.1,0.2c0.1,0.1,0.3,0.2,0.4,0.2c0.3-0.7,0.7-1.5,1.1-2.1c0-0.1-0.3-0.3-0.4-0.2c-0.1,0.1-0.1,0.2-0.2,0.2
					c-0.3,0.4-0.5,0.3-1.2,0C38.4,23.6,36.9,22.8,36,22.3"/>
			</g>
			<g>
				<path class="st1" d="M84.7,58.5c0.1,0,0.2,0.1,0.2,0.2c0,0-0.1,0.1-0.1,0.1c-0.2,0.2-0.2,0.3,0.2,0.7c0.2,0.3,0.7,0.8,0.9,1
					c0.2,0.2,0.4,0.5,0.7,0.3c0.1,0,0.1-0.1,0.1-0.1c0.1,0,0.2,0.1,0.2,0.2c-0.4,0.4-0.9,0.8-1.2,1.1c-0.1,0-0.2-0.1-0.2-0.2
					c0.1,0,0.1-0.1,0.1-0.1c0.2-0.2,0.1-0.5-0.2-0.7c-0.3-0.4-0.7-0.8-0.9-1c-0.3-0.4-0.4-0.4-0.7-0.3c0,0-0.1,0.1-0.1,0.1
					c-0.1,0-0.2-0.1-0.2-0.2C84,59.1,84.4,58.8,84.7,58.5 M70.3,65c-0.4,0.1-0.9,0.1-1.6,0.1c-0.1,0.1,0,0.2,0,0.3
					c0.1,0,0.1,0,0.2,0c0.3,0,0.3,0.2,0.4,0.6c0,0.3,0.1,0.8,0.1,1.3c0,0.3,0,0.6-0.3,0.7c0,0-0.1,0-0.1,0c-0.1,0.1-0.1,0.2,0,0.3
					c0.4,0,1-0.1,1.6-0.1c0-0.1,0-0.2,0-0.3c-0.1,0-0.1,0-0.2,0C70,68,70,67.6,70,67.3c0-0.3-0.1-0.9-0.1-1.3
					c-0.1-0.6,0-0.6,0.3-0.7c0,0,0.1,0,0.2,0C70.4,65.2,70.3,65.1,70.3,65 M45.5,52.2c-0.2-0.4-0.5-0.8-0.7-1.4
					c-0.1,0-0.2,0.1-0.3,0.1c0,0.1,0.1,0.1,0.1,0.2c0.1,0.3,0,0.4-0.4,0.6c-0.2,0.1-0.7,0.4-1.2,0.6c-0.3,0.2-0.6,0.3-0.7,0
					c0,0,0-0.1-0.1-0.1c-0.1,0-0.2,0-0.3,0.1c0.2,0.4,0.5,0.9,0.8,1.4c0.1,0,0.2-0.1,0.2-0.1c0,0,0-0.1-0.1-0.1
					c-0.1-0.3,0.2-0.4,0.4-0.6c0.2-0.1,0.8-0.5,1.2-0.6c0.5-0.3,0.6-0.2,0.8,0c0,0,0.1,0.1,0.1,0.1C45.3,52.4,45.4,52.3,45.5,52.2
					 M42.4,36.1c0.1-0.4,0.1-0.9,0.3-1.5c-0.1-0.1-0.2-0.1-0.3-0.1c0,0.1,0,0.1,0,0.2c-0.1,0.3-0.2,0.3-0.7,0.2
					c-0.3-0.1-0.8-0.2-1.3-0.2c-0.3-0.1-0.6-0.1-0.6-0.5c0,0,0-0.1,0-0.1c0-0.1-0.2-0.1-0.3-0.1c-0.1,0.4-0.2,1-0.3,1.6
					c0,0.1,0.2,0.1,0.3,0c0-0.1,0-0.1,0-0.2c0.1-0.3,0.4-0.2,0.7-0.2c0.3,0,0.9,0.2,1.3,0.2c0.6,0.1,0.6,0.2,0.6,0.4
					c0,0,0,0.1,0,0.2C42.2,36.1,42.4,36.1,42.4,36.1 M93,39.7c0,0.4,0,1,0,1.6c0.1,0.1,0.2,0.1,0.3,0c0-0.1,0-0.1,0-0.2
					c0.1-0.3,0.2-0.3,0.7-0.3c0.3,0,0.8,0,1.3,0.1c0.3,0,0.6,0,0.6,0.4c0,0,0,0.1,0,0.1c0,0.1,0.2,0.1,0.3,0c0-0.4,0-1,0-1.6
					c0,0-0.2,0-0.3,0c0,0,0,0.1,0,0.2c0,0.4-0.4,0.3-0.7,0.3c-0.3,0-0.9,0-1.3,0c-0.6,0-0.6-0.1-0.7-0.4c0,0,0-0.1,0-0.2
					C93.2,39.7,93,39.7,93,39.7 M87.5,55.7c0,0-0.4,0.1-0.9,0.6c-0.5,0.5-0.5,1.2,0,1.5c0.5,0.4,1,0.2,1.4,0
					c0.5-0.2,0.7-0.3,0.9-0.1c0.1,0.1,0.3,0.4,0,0.8C88.4,59,88,58.7,88,58.6c-0.1,0-0.2,0.1-0.2,0.2c0.1,0.1,0.5,0.4,0.6,0.4
					c0.1-0.1,0.4-0.3,0.7-0.6c0.7-0.8,0.2-1.4-0.1-1.6c-0.3-0.2-0.5-0.2-1.2,0.1c-0.5,0.2-0.8,0.3-1,0c-0.2-0.2-0.2-0.4,0.1-0.7
					c0.4-0.5,0.8-0.2,1.1-0.1c0.1,0,0.2-0.2,0.2-0.3C88,56.1,87.8,55.9,87.5,55.7 M66.9,65.3c0,0-0.3-0.2-1-0.3
					c-0.7,0-1.2,0.3-1.2,0.9c0,0.6,0.5,0.9,0.9,1.1c0.5,0.2,0.7,0.4,0.7,0.6c0,0.2-0.1,0.5-0.6,0.5c-0.6-0.1-0.6-0.6-0.6-0.6
					c-0.1-0.1-0.2-0.1-0.3,0c0,0.2,0,0.7,0,0.8c0.2,0,0.4,0.1,0.9,0.2c1.1,0.1,1.2-0.7,1.2-1c0-0.3-0.2-0.5-0.9-0.9
					c-0.5-0.2-0.7-0.4-0.6-0.8c0-0.2,0.2-0.4,0.6-0.4c0.6,0,0.7,0.5,0.8,0.8c0.1,0,0.2,0,0.3,0C66.9,65.9,67,65.6,66.9,65.3
					 M42.1,39.9c0,0,0.2-0.3,0.3-1c0-0.7-0.4-1.2-1-1.2c-0.6,0-0.9,0.5-1.1,0.9c-0.2,0.5-0.4,0.7-0.6,0.7c-0.2,0-0.5-0.1-0.5-0.6
					c0-0.6,0.6-0.6,0.6-0.6c0.1-0.1,0.1-0.2,0-0.3c-0.2,0-0.7,0-0.8,0.1c0,0.2-0.1,0.4-0.1,0.9c0,1.1,0.7,1.2,1.1,1.1
					c0.3,0,0.5-0.2,0.9-0.9c0.2-0.5,0.4-0.7,0.7-0.7c0.2,0,0.4,0.2,0.4,0.6c0,0.6-0.5,0.7-0.8,0.8c0,0.1,0,0.2,0,0.3
					C41.4,40.1,41.7,40,42.1,39.9 M43.1,32.7c0,0,0.3-0.3,0.5-0.9c0.2-0.7-0.1-1.3-0.6-1.4c-0.6-0.2-1,0.2-1.3,0.6
					c-0.3,0.4-0.5,0.6-0.8,0.5c-0.2,0-0.5-0.2-0.3-0.7c0.2-0.6,0.7-0.4,0.8-0.4c0.1-0.1,0.1-0.2,0.1-0.3c-0.2-0.1-0.7-0.1-0.8-0.1
					c-0.1,0.1-0.2,0.4-0.4,0.9c-0.3,1,0.4,1.3,0.7,1.4c0.3,0,0.6-0.1,1.1-0.6c0.3-0.4,0.6-0.6,0.9-0.5c0.2,0.1,0.4,0.3,0.3,0.7
					c-0.2,0.6-0.7,0.5-1,0.6c-0.1,0.1-0.1,0.2-0.1,0.3C42.4,32.6,42.7,32.7,43.1,32.7 M92.2,31.5c0.9-0.7,0.9-0.8,1.6-1.3
					c0.2-0.2,0.3-0.3,0.5,0c0,0.1,0,0.1,0.1,0.1c0.1,0,0.2,0,0.3-0.1c-0.2-0.5-0.3-0.9-0.6-1.4c-0.1-0.1-0.2,0-0.3,0.1
					c0,0,0,0.1,0,0.2c0.1,0.3,0,0.4-0.3,0.6c-0.2,0.1-2,1.6-2.1,1.7c0,0,0,0.1,0,0.1c0,0,0.2,0.3,0.3,0.4c0.8,0,2.1,0.1,2.6,0.2
					c0.5,0,0.6,0.1,0.6,0.3c0,0.1,0,0.1,0,0.2c0.1,0,0.2,0,0.3-0.1c-0.1-0.4-0.2-0.9-0.4-1.2c-0.1-0.1-0.2,0-0.3,0.1
					c0,0,0,0.1,0,0.1c0,0.2,0,0.3-0.4,0.3C93.6,31.6,92.9,31.6,92.2,31.5 M93.1,44.7c1.1-0.2,1.2-0.2,2-0.3c0.3,0,0.4-0.1,0.4,0.2
					c0,0.1,0,0.1,0,0.1c0.1,0.1,0.2,0.1,0.3,0c0.1-0.5,0.2-1,0.2-1.5c-0.1-0.1-0.2-0.1-0.3,0c0,0.1,0,0.1,0,0.2
					c-0.1,0.3-0.2,0.3-0.6,0.4c-0.2,0-2.6,0.4-2.6,0.4c-0.1,0-0.1,0.1-0.1,0.1c0,0,0.1,0.4,0.1,0.5c0.7,0.4,1.7,1.1,2.1,1.4
					c0.4,0.3,0.5,0.4,0.4,0.5c0,0.1,0,0.1,0,0.2c0,0.1,0.2,0.1,0.3,0.1c0.1-0.4,0.2-0.9,0.3-1.2c0-0.1-0.2-0.1-0.3-0.1
					c0,0,0,0.1,0,0.1c-0.1,0.2-0.1,0.3-0.5,0.1C94.3,45.5,93.6,45,93.1,44.7 M92.1,53.9c-0.1,0.2-0.2,0.3-0.3,0.5
					c-0.1,0.1-0.2,0.3-0.4,0.3c-0.2,0-0.4,0-0.5-0.1c-0.1-0.1-0.2-0.1-0.3-0.3c-0.1-0.2,0-0.4,0.1-0.6l-0.1-0.1
					c-0.3,0-1.6,0.2-1.9,0.3c-0.2,0.3-0.5,0.7-0.5,0.8c0,0.1,0.1,0.2,0.2,0.2c0-0.1,0.1-0.1,0.1-0.1c0.2-0.2,0.2-0.2,0.6-0.3
					c0.4-0.1,0.8-0.1,1.1-0.1c-0.1,0.4-0.1,0.8,0.3,1c0.6,0.4,1.1,0,1.3-0.3c0.1-0.1,0.2-0.3,0.2-0.4c0.1-0.1,0.3-0.6,0.8-1.4
					c0-0.1-0.2-0.2-0.2-0.1c0,0,0,0.1-0.1,0.1c-0.2,0.3-0.2,0.2-0.7,0c-0.2-0.1-0.9-0.5-1.2-0.6c-0.5-0.3-0.5-0.3-0.4-0.6
					c0,0,0-0.1,0.1-0.1c0-0.1-0.2-0.1-0.2-0.1c-0.2,0.4-0.5,0.9-0.7,1.3c0,0.1,0.2,0.2,0.2,0.1c0,0,0.1-0.1,0.1-0.1
					c0.2-0.2,0.3-0.2,0.7,0C90.6,53,91.6,53.6,92.1,53.9 M77.9,63c0.1-0.1,0.7-0.3,1-0.5c0.1,0,0.2,0.2,0.1,0.2c0,0-0.1,0-0.1,0.1
					c-0.1,0.1-0.2,0.2-0.2,0.7c0,0.5,0,2.4,0,2.6c-0.1,0.1-0.3,0.3-0.3,0.3c0,0,0,0-0.1,0c0,0-1.7-1.8-1.8-2
					c-0.1-0.1-0.4-0.4-0.6-0.4c-0.1,0-0.1,0-0.2,0c0,0-0.1-0.2-0.1-0.3c0.6-0.2,1.1-0.4,1.3-0.5c0.1,0,0.1,0.2,0.1,0.2
					c0,0,0,0-0.1,0c-0.2,0.1-0.1,0.3,0.1,0.4c0.2,0.2,0.2,0.2,0.2,0.3c0.1-0.1,0.9-0.4,1.1-0.5c0-0.1,0-0.1,0-0.3
					c0-0.3,0-0.4-0.3-0.4c-0.1,0-0.1,0-0.1,0C77.9,63.2,77.8,63.1,77.9,63 M78.4,64.2l-0.9,0.4l1,1L78.4,64.2z M83.5,62.4
					c0,0.1,0.1,0.2,0.1,0.4c0,0.1,0,0.3-0.3,0.5c-0.1,0-0.2,0.1-0.4,0.2c0,0-0.8-1.3-1-1.6c-0.3-0.5-0.3-0.6-0.1-0.7
					c0,0,0.1-0.1,0.1-0.1c0-0.1-0.1-0.2-0.2-0.2c-0.4,0.3-0.9,0.6-1.3,0.8c0,0.1,0.1,0.2,0.1,0.2c0.1,0,0.1-0.1,0.2-0.1
					c0.3-0.1,0.4,0,0.6,0.4c0.1,0.2,0.1,0.2,1,1.6c-0.2,0.1-0.4,0.2-0.5,0.3c-0.3,0.1-0.4,0-0.5-0.1c-0.1-0.1-0.1-0.1-0.2-0.2
					c-0.1,0-0.2,0.1-0.2,0.2c0.1,0.1,0.4,0.6,0.5,0.8c1.1-0.6,1.7-1,2.7-1.7c0-0.1-0.3-0.7-0.3-0.8C83.7,62.3,83.5,62.4,83.5,62.4
					 M75.2,66.4c0,0.1,0,0.2,0,0.4c0,0.1-0.1,0.3-0.4,0.4c-0.1,0-0.2,0.1-0.4,0.1c0,0-0.4-1.5-0.4-1.9c-0.1-0.5-0.1-0.6,0.2-0.7
					c0,0,0.1,0,0.1,0c0-0.1,0-0.2-0.1-0.3c-0.4,0.1-1,0.3-1.5,0.3c0,0.1,0,0.2,0,0.3c0.1,0,0.1,0,0.2,0c0.3,0,0.3,0.1,0.5,0.6
					c0.1,0.3,0.1,0.2,0.4,1.9c-0.2,0.1-0.5,0.1-0.6,0.1c-0.3,0-0.4-0.2-0.5-0.2c0-0.1-0.1-0.2-0.1-0.2c-0.1,0-0.2,0-0.3,0.1
					c0,0.1,0.2,0.7,0.2,0.9c1.2-0.2,1.9-0.4,3.1-0.7c0-0.1,0-0.8,0-0.9C75.4,66.3,75.3,66.3,75.2,66.4 M92.4,34.4
					c0.1,0.3,0.2,1,0.2,1.3c0.1,0.1,0.2,0,0.3,0c0,0,0-0.1,0-0.2c0-0.2,0.1-0.3,0.6-0.4c0.3-0.1,1.4-0.3,1.6-0.3
					c-0.2,0.3-0.5,0.6-1,1.1c-0.5,0.6-1,1.2-1.4,1.7c0,0.1,0.1,0.2,0.1,0.2c0.2,0,1.9-0.1,2.3-0.2c0.5,0,0.6,0,0.7,0.2
					c0,0,0,0.1,0,0.1c0.1,0.1,0.2,0.1,0.3,0c0-0.3-0.1-0.9-0.1-1.3c-0.1-0.1-0.2,0-0.3,0c0,0.1,0,0.1,0,0.2c0,0.3-0.1,0.4-0.6,0.4
					c-0.2,0-1.1,0.1-1.4,0.1c0.1-0.1,0.4-0.5,0.9-1.1c0.5-0.5,0.8-0.9,0.9-1c0.1-0.1,0.2-0.2,0.3-0.2c0-0.1,0-0.1,0-0.1
					c0-0.3-0.1-0.8-0.2-1c-0.1,0-0.2,0-0.3,0.1c0,0.1,0,0.1,0,0.2c0,0.3-0.2,0.3-0.6,0.4c-0.4,0.1-0.9,0.2-1.3,0.2
					c-0.5,0.1-0.7,0-0.7-0.2c0,0,0-0.1,0-0.2C92.6,34.2,92.4,34.3,92.4,34.4 M58.8,63.6c-0.1,0-0.1,0.2-0.1,0.3
					c0.1,0,0.1,0.1,0.2,0.1c0.3,0.1,0.2,0.3,0.1,0.7c0,0.1-0.1,0.3-0.2,0.5c0,0-0.4-0.2-0.8-0.3c-0.4-0.1-0.8-0.3-0.8-0.3
					c0.1-0.2,0.2-0.4,0.2-0.5c0.2-0.5,0.3-0.6,0.6-0.5c0,0,0.1,0,0.1,0c0.1,0,0.1-0.2,0.1-0.3c-0.5-0.2-1-0.4-1.4-0.6
					c-0.1,0-0.2,0.2-0.1,0.3c0.1,0,0.1,0.1,0.1,0.1c0.2,0.1,0.2,0.3,0,0.7c-0.1,0.2-0.4,0.8-0.6,1.2c-0.1,0.3-0.3,0.6-0.6,0.5
					c0,0-0.1,0-0.1-0.1c-0.1,0-0.1,0.2-0.1,0.3c0.3,0.2,0.9,0.4,1.5,0.6c0.1,0,0.1-0.2,0.1-0.3c0,0-0.1,0-0.1-0.1
					c-0.3-0.1-0.2-0.4-0.1-0.7c0-0.1,0.1-0.3,0.2-0.4c0,0,0.5,0.2,0.8,0.3c0.3,0.1,0.8,0.3,0.8,0.3c-0.1,0.2-0.1,0.3-0.1,0.5
					c-0.1,0.3-0.2,0.6-0.6,0.5c0,0-0.1,0-0.1,0c-0.1,0.1-0.1,0.2-0.1,0.3c0.4,0.1,1,0.3,1.5,0.5c0.1,0,0.1-0.2,0.1-0.3
					c-0.1,0-0.1,0-0.1,0c-0.3-0.1-0.2-0.3-0.1-0.7c0.1-0.2,0.3-0.9,0.4-1.3c0.2-0.5,0.2-0.6,0.5-0.5c0,0,0.1,0,0.1,0
					c0.1,0,0.1-0.2,0.1-0.3C59.8,63.9,59.3,63.8,58.8,63.6 M91.8,47.4c-0.3,0.8-0.6,1.8-0.9,2.5c0.1,0.1,0.7,0.5,0.8,0.5
					c0.1,0,0.2-0.2,0.2-0.3c0,0-0.1-0.1-0.2-0.1c-0.2-0.2-0.3-0.4-0.2-0.7c0-0.1,0.1-0.2,0.1-0.3c0.1-0.3,0.2-0.5,0.7-0.3
					c0.1,0,0.6,0.2,0.6,0.2c0,0-0.3,0.9-0.3,0.9c0.1,0.1,0.2,0.1,0.3,0.1c0,0,0.1-0.2,0.3-0.9c0.1,0,0.8,0.3,0.9,0.3
					c0.1,0,0.1,0.1,0.1,0.2c0,0.1-0.2,0.5-0.3,0.8c-0.1,0.3-0.3,0.3-0.5,0.3c-0.1,0-0.2,0-0.3,0C93,50.6,93,50.8,93,50.9
					c0.2,0.1,0.6,0.2,0.8,0.3c0.4-1,0.8-2,1-2.7c0-0.1-0.2-0.1-0.3-0.1c0,0,0,0.1,0,0.1c-0.1,0.3-0.3,0.2-0.7,0.1
					c-0.3-0.1-0.8-0.3-1.3-0.4C92,48,92,47.8,92,47.6c0,0,0-0.1,0-0.1C92,47.4,91.9,47.4,91.8,47.4 M44.1,49.4
					c-0.3-0.8-0.7-1.8-0.9-2.5c-0.2,0-0.8,0.1-0.9,0.1c-0.1,0.1,0,0.2,0,0.3c0,0,0.1,0,0.2,0c0.3,0,0.5,0.1,0.6,0.4
					c0,0.1,0.1,0.2,0.1,0.3c0.1,0.4,0.1,0.5-0.3,0.6c-0.1,0-0.6,0.2-0.6,0.2c0,0-0.3-0.9-0.3-0.9c-0.1,0-0.2,0-0.3,0.1
					c0,0,0.1,0.2,0.3,0.9c-0.1,0-0.8,0.3-0.9,0.3c-0.1,0-0.1,0-0.2-0.1c-0.1-0.1-0.2-0.5-0.3-0.8c-0.1-0.3,0.1-0.4,0.2-0.5
					c0.1-0.1,0.2-0.1,0.3-0.2c0-0.1,0-0.2-0.1-0.3c-0.2,0.1-0.6,0.2-0.8,0.3c0.3,1,0.7,2.1,0.9,2.7c0.1,0,0.2,0,0.3-0.1
					c0,0,0-0.1,0-0.1c-0.1-0.3,0.1-0.4,0.5-0.5c0.3-0.1,0.8-0.3,1.2-0.5c0.6-0.2,0.7-0.1,0.8,0.1c0,0,0,0,0.1,0.1
					C43.9,49.5,44,49.5,44.1,49.4 M48.6,56.6c-0.2-0.2-0.6-0.7-0.8-1c-0.1,0-0.2,0.1-0.2,0.2c0,0,0,0.1,0.1,0.1
					c0.1,0.2,0.1,0.3-0.3,0.7c-0.3,0.2-1.1,0.9-1.3,1.1c0.1-0.3,0.2-0.8,0.3-1.5c0.1-0.7,0.3-1.5,0.4-2.1c0-0.1-0.1-0.1-0.2-0.1
					c-0.1,0.1-1.6,1.1-1.9,1.3c-0.5,0.3-0.5,0.3-0.7,0.1c0,0-0.1-0.1-0.1-0.1c-0.1,0-0.2,0.1-0.2,0.2c0.2,0.3,0.5,0.7,0.8,1.1
					c0.1,0,0.2-0.1,0.2-0.2c0,0-0.1-0.1-0.1-0.1c-0.2-0.3-0.1-0.4,0.3-0.7c0.2-0.1,1-0.6,1.2-0.8c0,0.2-0.1,0.7-0.2,1.4
					c-0.1,0.7-0.3,1.2-0.3,1.4c0,0.2-0.1,0.2-0.1,0.3c0,0,0.1,0.1,0.1,0.1c0.2,0.2,0.5,0.6,0.6,0.8c0.1,0,0.2-0.1,0.2-0.2
					c0-0.1-0.1-0.1-0.1-0.1c-0.2-0.3,0-0.4,0.3-0.6c0.3-0.2,0.7-0.6,1-0.9c0.4-0.3,0.6-0.4,0.7-0.2c0,0,0.1,0.1,0.1,0.1
					C48.5,56.8,48.6,56.7,48.6,56.6 M42.8,45.2c-0.1-0.3-0.2-1-0.2-1.3c-0.1-0.1-0.2,0-0.3,0c0,0,0,0.1,0,0.2c0,0.2-0.1,0.3-0.6,0.4
					c-0.3,0.1-1.4,0.3-1.6,0.3c0.2-0.3,0.5-0.6,1-1.1c0.5-0.6,1-1.2,1.3-1.7c0-0.1-0.1-0.2-0.1-0.2c-0.2,0-1.9,0.1-2.3,0.2
					c-0.5,0-0.6,0-0.7-0.2c0,0,0-0.1,0-0.1c-0.1-0.1-0.2-0.1-0.3,0c0,0.3,0.1,0.9,0.1,1.3c0.1,0.1,0.2,0,0.3,0c0,0,0-0.1,0-0.2
					c0-0.3,0.1-0.4,0.6-0.4c0.2,0,1.2-0.1,1.4-0.1c-0.1,0.1-0.4,0.5-0.9,1.1c-0.5,0.5-0.8,0.9-0.9,1c-0.1,0.1-0.2,0.2-0.3,0.2
					c0,0.1,0,0.1,0,0.1c0,0.3,0.1,0.8,0.2,1c0.1,0,0.2,0,0.3-0.1c0-0.1,0-0.1,0-0.2c0-0.3,0.2-0.3,0.6-0.4c0.4-0.1,0.9-0.2,1.3-0.3
					c0.5-0.1,0.7,0,0.7,0.2c0,0,0,0.1,0,0.2C42.6,45.4,42.7,45.3,42.8,45.2 M50.1,58.5c0,0,0.1,0.1,0.1,0.1c0.2,0.2,0.3,0.4,0,0.7
					c-0.1,0.1-0.3,0.3-0.4,0.4c-0.3-0.2-0.4-0.4-0.7-0.6c-0.1,0-0.2,0.1-0.2,0.2c0.3,0.2,0.4,0.4,0.7,0.6c-0.1,0.1-0.6,0.7-0.7,0.8
					c-0.1,0.1-0.1,0.1-0.2,0c-0.1-0.1-0.3-0.2-0.5-0.5c-0.3-0.4,0-0.9,0.1-1.1c0-0.1-0.1-0.2-0.3-0.2c-0.2,0.2-0.5,0.7-0.7,0.9
					c0.9,0.9,1.4,1.3,2.1,1.9c0.1,0,0.2-0.1,0.2-0.2c0,0,0,0-0.1-0.1c-0.2-0.2-0.1-0.4,0.2-0.7c0.2-0.2,0.5-0.6,0.9-1
					c0.4-0.5,0.5-0.4,0.7-0.3c0,0,0,0,0.1,0.1c0.1,0,0.2-0.1,0.2-0.2c-0.4-0.3-0.9-0.7-1.2-1.1C50.2,58.3,50.1,58.5,50.1,58.5
					 M54.6,61.6c0.2,0.1,0.6,0.4,1,0.6c0,0.1,0,0.2-0.1,0.2c0,0-0.1,0-0.1-0.1c-0.1,0-0.3-0.1-0.7,0.2c-0.4,0.3-2,1.4-2.1,1.5
					c-0.1,0-0.4-0.1-0.4-0.1c0,0-0.1,0,0-0.1c0-0.1,0.5-2.4,0.6-2.6c0-0.1,0.1-0.5-0.1-0.7c-0.1,0-0.1-0.1-0.1-0.1
					c0-0.1,0.1-0.2,0.2-0.2c0.5,0.4,0.9,0.7,1.1,0.8c0,0.1-0.1,0.2-0.1,0.2c0,0,0,0-0.1-0.1c-0.2-0.1-0.3,0.1-0.3,0.3
					c-0.1,0.2-0.1,0.2-0.1,0.4c0.1,0.1,0.9,0.5,1,0.6c0.1,0,0.1-0.1,0.3-0.2c0.3-0.2,0.3-0.3,0.1-0.4c-0.1-0.1-0.1,0-0.1-0.1
					C54.4,61.7,54.4,61.6,54.6,61.6 M53.9,62.7L53,62.1l-0.3,1.4L53.9,62.7z"/>
			</g>
			<g>
				<path class="st1" d="M69.2,44.3c0.2,2.3,0.7,5.6,1.3,7.9l-0.7,1.2c-1.1-4.3-1.4-6.9-1.5-7.8c-0.4,0.9-1.1,2.3-2,4.4
					c0.7,2.3,2,5.9,3.2,8.4L69,59.5c-1.3-2.7-2.1-5-2.8-6.7c-0.2-0.7-0.4-1.2-0.5-1.6c-0.4,1.2-1.5,4.1-2.3,8.7l-1.1,0.5
					c0.6-3.6,1.7-7.3,2.9-10.5c-0.5-1.9-1-3.9-1.2-5.3c-1.1-0.4-1.8-1.3-2.3-3.3c0.5,0.5,0.9,0.8,1.6,1.2l0.1-0.7
					c-1.5-1.1-2-2.1-2.2-3.6c0.5,0.5,0.9,0.9,1.6,1.4l0.1-0.7c-1.1-1.1-1.8-1.9-1.9-3.4c0.4,0.5,0.9,0.9,1.7,1.4l0.1-0.7
					c-1.1-1.2-1.6-1.9-1.5-3.1c0.5,0.7,0.9,0.9,1.4,1.3l0.2-0.6c-0.9-1.1-1.1-1.6-1-2.5c0.6,0.7,0.7,0.8,1.3,1.3
					c0,0,0.1-1.6,0.6-2.6c0.4,0.8,0.4,2.2,0.4,3.2c0.5-0.5,1-1.3,1.3-1.8c0.1,1.6-0.2,2.1-1.1,3.5l0.2,0.5c0.5-0.4,0.9-0.7,1.4-1.5
					c0.1,1.7-0.3,2.2-1.3,3.8l0.2,0.6c0.7-0.6,1.2-1.1,1.5-1.8c0.2,1.6-0.4,2.6-1.4,4.2l0.2,0.6c0.6-0.5,0.9-0.7,1.3-1.4
					c0.3,1.7-0.4,3.3-1.4,4.1c0.2,1,0.4,2,0.6,3.1c0.2,0.7,0.3,1.3,0.3,1.5c0.3-0.8,1-2.3,2.3-4.7c-0.1-4.5,0.6-8.9,2.1-13.3
					c-0.9-0.7-1.4-2.5-0.6-4.3c0.2,1,0.5,1.8,0.7,2.2l0.4-0.4c-0.3-2.1-0.3-3,0.3-4.4c0.1,0.7,0.3,1.6,0.6,2.3l0.5-0.5
					c-0.3-2-0.4-3,0.3-4.4c0.1,0.7,0.4,1.6,0.6,2.3l0.5-0.4c-0.2-1.6-0.2-3,0.4-4.1c0.1,0.7,0.2,1.4,0.5,2.4l0.5-0.4
					c-0.1-1.7,0.1-2.8,0.7-3.4c0,0.9,0.1,1.3,0.3,2l0.5-0.4c0-1.4,0-1.9,0.6-2.5c0.1,0.8,0.1,1.1,0.3,1.7c0,0,1.1-1.1,2-1.6
					c-0.2,0.8-0.9,1.9-1.6,2.7c0.7-0.1,1.6-0.4,2.1-0.6c-0.9,1.3-1.4,1.5-2.9,1.9l-0.1,0.5c0.7,0,1.3,0,2.2-0.3
					c-1,1.3-1.7,1.5-3.4,2.1l-0.2,0.6c1-0.1,1.9-0.3,2.5-0.6c-0.8,1.4-1.9,1.8-3.6,2.4L74,26.1c1-0.1,1.9-0.4,2.5-0.7
					c-0.7,1.4-2,2.1-3.7,2.6l-0.2,0.6c1.3-0.2,1.6-0.3,2.6-0.7c-1,1.8-2.8,2.7-4,2.8c-1.3,3.6-1.8,6.7-2,9.1c-0.1,1.2-0.1,2.1-0.2,3
					c0.2-0.3,0.3-0.6,0.6-1c0.7-1.1,1.2-1.9,2.2-3.3c-0.5-1-0.5-2.6,0.6-4c0,1,0.1,1.8,0.2,2.3l0.4-0.4c0-2,0.3-2.9,1.1-4.2
					c0,0.7,0,1.4,0.1,2.4l0.5-0.4c0.1-2.1,0.4-3.1,1.3-4.3c-0.1,0.8,0,1.7,0,2.5l0.6-0.4c0.1-1.6,0.3-3,1.2-4
					c-0.2,1.1-0.1,1.3,0,2.5l0.6-0.3c0.2-1.7,0.6-2.8,1.3-3.3c-0.2,0.9-0.1,1.3-0.1,2l0.6-0.3c0.3-1.4,0.4-1.9,1.1-2.3
					c-0.1,0.8-0.1,1.1-0.1,1.8c0,0,1.2-0.9,2.2-1.2c-0.3,0.8-1.3,1.7-2,2.3c0.7,0.1,1.6-0.1,2.2-0.2c-1.1,1.1-1.7,1.2-3.2,1.4
					l-0.2,0.4c0.6,0.2,1.3,0.2,2.2,0c-1.2,1.1-1.9,1.2-3.7,1.4l-0.3,0.5c1,0.1,1.7,0.1,2.4-0.1c-1.1,1.3-2,1.4-3.8,1.6l-0.3,0.5
					c1,0,1.7,0,2.4-0.3c-0.9,1.3-2,1.6-3.9,1.9l-0.3,0.6c0.9,0.1,1.5,0.1,2.5-0.2c-1.7,1.9-3.6,2-4.6,2
					C71.4,40.6,70.2,42.5,69.2,44.3z M56.6,25.6c0,1,0.7,2,1.7,2.3c1.1,0.4,2.3,0,3-0.9c1.9,0.8,3.9,1.8,5.9,3.1
					c0.1-0.4,0.1-0.8,0.3-1.3c-1.9-1.3-3.8-2.4-5.6-3.3c0.2-1.2-0.5-2.4-1.7-2.8c-1.1-0.4-2.2,0-2.9,0.8c-5.1-1.9-9-2.2-10.4-0.2
					c-2.2,3.1,3.4,10.9,12.7,17.7c-0.2-0.6-0.4-1.3-0.5-2c-5.9-4.8-9.1-10.1-7.4-12.4C52.4,25.4,54.2,25.1,56.6,25.6z M79.1,37.9
					c-0.2,0.3-0.5,0.5-0.8,0.8c4,3.9,5.9,7.8,4.5,9.7c-1.4,2-5.9,1.4-11-1.2c0.1,0.5,0.2,1.1,0.3,1.7c6.9,3.8,12.9,4.8,14.6,2.4
					C88.4,48.8,85.2,43.2,79.1,37.9z"/>
			</g>
		</g>
	</g>
</g>
<g id="KU">
</g>
</svg>
